<svg width="13" height="16" viewBox="0 0 13 16" fill="none" xmlns="http://www.w3.org/2000/svg">
<path d="M3.535 11.3322C3.26344 11.0606 3.405 11.1372 2.75 10.9619C2.45281 10.8822 2.19156 10.7291 1.95531 10.5456L0.537501 14.0219C0.400313 14.3584 0.656563 14.7241 1.01969 14.7103L2.66625 14.6475L3.79875 15.8438C4.04875 16.1075 4.4875 16.0253 4.62469 15.6888L6.25125 11.7006C5.9125 11.8894 5.53656 12 5.14781 12C4.53844 12 3.96594 11.7628 3.535 11.3322ZM12.4625 14.0219L11.0447 10.5456C10.8084 10.7294 10.5472 10.8822 10.25 10.9619C9.59156 11.1381 9.73594 11.0613 9.465 11.3322C9.03406 11.7628 8.46125 12 7.85188 12C7.46313 12 7.08719 11.8891 6.74844 11.7006L8.375 15.6888C8.51219 16.0253 8.95125 16.1075 9.20094 15.8438L10.3338 14.6475L11.9803 14.7103C12.3434 14.7241 12.5997 14.3581 12.4625 14.0219ZM8.71875 10.625C9.19625 10.1391 9.25094 10.1809 9.93094 9.99563C10.365 9.87719 10.7044 9.53188 10.8206 9.09001C11.0544 8.20251 10.9938 8.3097 11.6316 7.66032C11.9494 7.33688 12.0734 6.86532 11.9572 6.42345C11.7238 5.53657 11.7234 5.66032 11.9572 4.77251C12.0734 4.33063 11.9494 3.85907 11.6316 3.53563C10.9938 2.88626 11.0544 2.99313 10.8206 2.10595C10.7044 1.66407 10.365 1.31876 9.93094 1.20032C9.05969 0.962508 9.16469 1.0247 8.52625 0.375008C8.20844 0.0515703 7.745 -0.0749922 7.31094 0.0434453C6.44 0.280945 6.56156 0.281258 5.68906 0.0434453C5.255 -0.0749922 4.79156 0.0512578 4.47375 0.375008C3.83594 1.02438 3.94094 0.962508 3.06938 1.20032C2.63531 1.31876 2.29594 1.66407 2.17969 2.10595C1.94625 2.99313 2.00656 2.88626 1.36875 3.53563C1.05094 3.85907 0.926563 4.33063 1.04313 4.77251C1.27656 5.65876 1.27688 5.53501 1.04313 6.42313C0.926876 6.86501 1.05094 7.33657 1.36875 7.66032C2.00656 8.3097 1.94594 8.20251 2.17969 9.09001C2.29594 9.53188 2.63531 9.87719 3.06938 9.99563C3.76875 10.1863 3.82094 10.1563 4.28125 10.625C4.69469 11.0459 5.33875 11.1213 5.83563 10.8069C6.03432 10.6807 6.26481 10.6138 6.50016 10.6138C6.73551 10.6138 6.966 10.6807 7.16469 10.8069C7.66125 11.1213 8.30531 11.0459 8.71875 10.625ZM3.55188 5.49876C3.55188 3.84157 4.87188 2.49813 6.5 2.49813C8.12813 2.49813 9.44813 3.84157 9.44813 5.49876C9.44813 7.15595 8.12813 8.49938 6.5 8.49938C4.87188 8.49938 3.55188 7.15595 3.55188 5.49876Z" fill="#CCA33D"/>
</svg>
